<svg id="Capa_1" enable-background="new 0 0 512 512" height="64" viewBox="0 0 512 512" width="64" xmlns="http://www.w3.org/2000/svg"><g><path d="m256 356c-37.525 0-70.216-20.673-87.323-51.247l-117.126-202.868c-33.441 44.171-51.551 97.748-51.551 154.115 0 68.38 26.629 132.667 74.98 181.02 40.909 40.908 93.225 66.261 149.774 73.1l117.191-202.98c-17.447 29.258-49.405 48.86-85.945 48.86z" fill="#85e623"/><path d="m341.945 307.139c-17.447 29.259-49.405 48.861-85.945 48.861v100z" fill="#5fc314"/><path d="m156 256c0-55.229 44.772-100 100-100h235.793c-12.682-29.893-31.121-57.366-54.773-81.02-48.353-48.351-112.64-74.98-181.02-74.98s-132.667 26.629-181.02 74.98c-8.494 8.494-16.303 17.49-23.429 26.904l117.126 202.868c-8.07-14.424-12.677-31.049-12.677-48.752z" fill="#ff6446"/><path d="m491.793 156c-12.682-29.893-31.121-57.366-54.773-81.02-48.353-48.351-112.64-74.98-181.02-74.98v156z" fill="#ff320a"/><path d="m491.793 156h-235.793c55.228 0 100 44.771 100 100 0 18.688-5.132 36.175-14.055 51.139l-117.191 202.98c10.29 1.245 20.719 1.881 31.246 1.881 68.38 0 132.667-26.629 181.02-74.98 48.351-48.353 74.98-112.64 74.98-181.02 0-34.93-6.964-68.785-20.207-100z" fill="#fff037"/><path d="m256 156c55.228 0 100 44.771 100 100 0 18.688-5.132 36.175-14.055 51.139l-85.945 148.861v56c68.38 0 132.667-26.629 181.02-74.98 48.351-48.353 74.98-112.64 74.98-181.02 0-34.93-6.964-68.785-20.207-100z" fill="#ffcd14"/><path d="m156 256c0 17.703 4.607 34.328 12.677 48.753 17.107 30.574 49.798 51.247 87.323 51.247 36.54 0 68.498-19.602 85.945-48.861l.004-.007-.004.007c8.923-14.964 14.055-32.451 14.055-51.139 0-55.229-44.772-100-100-100s-100 44.771-100 100z" fill="none"/><path d="m256 356c-55.228 0-100-44.772-100-100 0-55.229 44.772-100 100-100s100 44.771 100 100c0 55.228-44.772 100-100 100z" fill="#dcf5fa"/><path d="m156 256c0 17.703 4.607 34.328 12.677 48.753 17.107 30.574 49.798 51.247 87.323 51.247 36.54 0 68.498-19.602 85.945-48.861l.004-.007-.004.007c8.923-14.964 14.055-32.451 14.055-51.139 0-55.229-44.772-100-100-100s-100 44.771-100 100z" fill="none"/><path d="m356 256c0-55.229-44.772-100-100-100v200c55.228 0 100-44.772 100-100z" fill="#bedce6"/><circle cx="256" cy="256" fill="#498cf0" r="70"/><path d="m326 256c0-38.66-31.34-70-70-70v140c38.66 0 70-31.34 70-70z" fill="#176ade"/></g></svg>
